<?xml version="1.0" standalone="no"?>
<!DOCTYPE svg PUBLIC "-//W3C//DTD SVG 20010904//EN"
 "http://www.w3.org/TR/2001/REC-SVG-20010904/DTD/svg10.dtd">
<svg version="1.0" xmlns="http://www.w3.org/2000/svg"
 width="512.000000pt" height="512.000000pt" viewBox="0 0 512.000000 512.000000"
 preserveAspectRatio="xMidYMid meet">
<metadata>
Created by potrace 1.16, written by Peter Selinger 2001-2019
</metadata>
<g transform="translate(0.000000,512.000000) scale(0.100000,-0.100000)"
fill="#000000" stroke="none">
<path d="M0 2560 l0 -2560 2560 0 2560 0 0 2560 0 2560 -2560 0 -2560 0 0
-2560z m2720 1051 c164 -115 296 -253 341 -356 26 -58 34 -132 19 -169 l-11
-30 -30 52 c-36 63 -105 116 -236 180 l-96 47 -3 45 c-5 54 -36 162 -70 237
-13 31 -24 58 -24 60 0 9 22 -4 110 -66z m-329 -241 c65 -44 95 -71 104 -94
19 -45 49 -166 43 -172 -3 -3 -44 10 -92 28 -84 32 -86 34 -86 66 0 40 -33
142 -66 201 -29 53 -23 51 97 -29z m314 -104 c215 -162 422 -343 515 -451 92
-106 110 -164 85 -272 -9 -37 -27 -87 -42 -112 -25 -43 -26 -44 -38 -21 -6 12
-31 35 -54 50 -169 114 -611 40 -1226 -204 -102 -41 -182 -69 -178 -62 4 6 22
31 41 55 146 192 187 458 108 695 -14 39 -23 72 -21 74 1 2 75 -36 163 -83
l161 -86 7 -46 c7 -45 0 -206 -12 -274 -9 -55 12 -13 36 72 43 153 37 367 -15
520 -14 40 -23 74 -21 76 2 3 81 -47 174 -109 193 -128 182 -112 182 -268 0
-76 -10 -172 -25 -238 -3 -13 -2 -21 4 -18 16 10 70 198 79 276 18 152 -6 321
-64 455 -20 44 -38 87 -41 94 -8 18 17 1 182 -123z m-558 -130 c12 -12 64
-168 57 -175 -2 -2 -39 4 -83 14 l-78 18 -6 52 c-3 31 -20 81 -42 125 l-36 72
88 -47 c48 -26 93 -53 100 -59z m-669 -1111 l42 -17 0 -64 c0 -66 -13 -85 -25
-37 -18 74 -102 126 -169 103 -49 -16 -83 -45 -106 -91 -70 -136 7 -309 138
-311 59 -1 97 24 124 81 12 28 26 50 31 51 4 0 7 -29 7 -64 l0 -64 -37 -15
c-101 -40 -223 -29 -296 27 -63 48 -92 107 -92 186 1 114 69 202 180 231 46
12 155 4 203 -16z m397 14 c61 -17 139 -101 155 -168 39 -165 -92 -317 -256
-296 -231 29 -281 353 -70 451 56 26 109 30 171 13z m878 -7 c25 -11 27 -16
27 -67 0 -30 -2 -55 -5 -55 -3 0 -11 15 -18 33 -19 43 -47 67 -88 73 -61 10
-105 -44 -82 -101 3 -10 44 -35 89 -56 62 -28 89 -46 104 -71 40 -66 15 -159
-53 -195 -40 -21 -128 -23 -184 -4 l-43 14 0 59 c0 65 10 74 28 24 22 -60 78
-90 139 -74 22 6 34 17 42 39 16 48 -3 76 -79 116 -89 46 -121 80 -127 134 -6
54 24 104 77 132 38 20 122 19 173 -1z m-396 -18 c36 -27 57 -83 49 -127 -7
-40 -60 -97 -90 -98 -21 0 -21 0 1 -11 13 -6 44 -46 69 -89 25 -44 59 -93 75
-110 16 -17 29 -33 29 -35 0 -12 -66 -1 -101 16 -39 20 -74 67 -152 203 l-28
47 24 0 c13 0 36 9 51 21 22 17 26 28 26 73 0 77 -26 108 -89 104 l-46 -3 -3
-187 c-2 -177 -1 -189 18 -208 11 -11 20 -22 20 -25 0 -3 -39 -5 -87 -5 -87 1
-88 1 -65 19 21 19 22 24 22 214 0 190 0 195 -22 211 -22 15 -14 16 124 14
131 -3 150 -5 175 -24z m792 -191 c58 -143 92 -215 104 -219 43 -14 9 -24 -80
-23 -92 0 -97 1 -75 16 26 18 27 33 5 91 l-16 43 -80 -3 -79 -3 -20 -50 -19
-50 20 -16 c12 -10 21 -20 21 -23 0 -3 -29 -6 -65 -6 -67 0 -79 7 -46 27 10 7
46 80 84 175 108 269 103 260 134 256 25 -3 33 -18 112 -215z m303 197 c-21
-20 -22 -28 -22 -210 0 -179 1 -191 20 -202 35 -22 22 -28 -65 -28 -87 0 -100
6 -65 28 19 11 20 23 20 202 0 179 -1 191 -20 202 -35 22 -22 28 67 28 l87 0
-22 -20z m375 -8 c73 -52 62 -176 -19 -212 -36 -16 -38 -19 -19 -25 12 -3 31
-25 42 -48 29 -56 108 -167 120 -167 5 0 9 -4 9 -10 0 -17 -59 -11 -101 10
-39 20 -77 70 -153 203 l-28 47 25 0 c13 0 36 9 51 21 22 18 26 28 26 75 0 45
-4 59 -25 80 -20 20 -33 25 -68 22 l-42 -3 -3 -192 c-2 -184 -2 -193 18 -205
35 -22 22 -28 -65 -28 -80 0 -111 11 -65 23 19 5 20 14 20 205 0 196 0 200
-22 216 -22 15 -14 16 122 13 133 -2 148 -4 177 -25z"/>
<path d="M1753 2004 c-100 -50 -114 -286 -21 -372 36 -33 85 -38 126 -12 104
65 104 317 0 380 -40 24 -62 25 -105 4z"/>
</g>
</svg>
