<?xml version="1.0" standalone="no"?>
<!DOCTYPE svg PUBLIC "-//W3C//DTD SVG 20010904//EN"
 "http://www.w3.org/TR/2001/REC-SVG-20010904/DTD/svg10.dtd">
<svg version="1.0" xmlns="http://www.w3.org/2000/svg"
 width="225.000000pt" height="225.000000pt" viewBox="0 0 225.000000 225.000000"
 preserveAspectRatio="xMidYMid meet">
<metadata>
Created by potrace 1.16, written by Peter Selinger 2001-2019
</metadata>
<g transform="translate(0.000000,225.000000) scale(0.100000,-0.100000)"
fill="#000000" stroke="none">
<path d="M975 2239 c-299 -35 -610 -228 -781 -484 -472 -710 -28 -1658 818
-1747 701 -74 1304 528 1230 1229 -67 636 -625 1078 -1267 1002z m351 -138
c122 -25 246 -77 351 -147 89 -59 237 -198 230 -217 -2 -6 -75 -50 -162 -99
-88 -48 -165 -94 -171 -103 -11 -15 -40 -163 -33 -169 2 -2 103 52 224 120
121 68 224 123 230 121 14 -5 73 -146 97 -235 31 -116 36 -318 10 -443 -26
-125 -76 -246 -144 -350 -60 -91 -179 -221 -185 -202 -4 10 44 292 148 876 17
92 29 172 27 176 -2 4 -99 -46 -216 -112 -117 -65 -216 -116 -219 -114 -3 3 0
36 6 73 7 36 10 68 8 70 -2 3 -165 -86 -362 -196 -197 -111 -361 -199 -364
-198 -6 3 182 1122 194 1156 7 20 222 15 331 -7z m-840 -404 c-20 -111 -70
-393 -112 -627 l-75 -425 43 -37 c24 -21 46 -38 49 -38 3 0 254 139 557 309
389 217 552 304 552 292 -1 -48 -179 -1014 -188 -1023 -7 -7 -66 -13 -149 -16
-111 -3 -157 0 -234 16 -695 144 -1022 932 -634 1528 58 89 216 256 223 235 2
-6 -12 -103 -32 -214z"/>
</g>
</svg>
