<?xml version="1.0" standalone="no"?>
<!DOCTYPE svg PUBLIC "-//W3C//DTD SVG 20010904//EN"
 "http://www.w3.org/TR/2001/REC-SVG-20010904/DTD/svg10.dtd">
<svg version="1.0" xmlns="http://www.w3.org/2000/svg"
 width="2400.000000pt" height="1440.000000pt" viewBox="0 0 2400.000000 1440.000000"
 preserveAspectRatio="xMidYMid meet">
<metadata>
Created by potrace 1.16, written by Peter Selinger 2001-2019
</metadata>
<g transform="translate(0.000000,1440.000000) scale(0.100000,-0.100000)"
fill="#000000" stroke="none">
<path d="M2500 9908 c-17 -40 -1930 -5381 -1930 -5390 0 -4 474 -8 1053 -8
l1054 0 488 1363 c268 749 507 1405 530 1457 117 267 330 549 638 847 238 229
362 307 639 398 544 179 954 120 1059 -153 30 -79 31 -224 1 -344 -12 -48
-301 -866 -642 -1818 -341 -952 -620 -1735 -620 -1740 0 -7 375 -10 1053 -10
l1052 0 493 1378 c338 943 512 1415 552 1497 73 151 189 325 323 485 117 140
371 393 491 488 228 183 752 340 1055 318 402 -30 547 -258 423 -667 -16 -52
-300 -850 -632 -1774 -332 -924 -605 -1690 -608 -1702 l-4 -23 1050 0 c664 0
1053 4 1057 10 9 14 1351 3759 1375 3837 64 208 66 534 4 743 -47 159 -136
304 -247 405 -302 273 -603 386 -1112 416 -418 24 -880 -33 -1329 -166 -476
-140 -847 -308 -1375 -622 -68 -40 -124 -72 -125 -71 -1 2 -12 36 -25 76 -58
188 -168 331 -366 477 -260 193 -539 280 -980 306 -434 25 -897 -35 -1370
-178 -446 -135 -819 -305 -1328 -607 -79 -46 -129 -71 -131 -63 -53 183 -131
314 -259 433 -297 277 -614 390 -1179 419 -116 6 -118 6 -128 -17z"/>
<path d="M16245 9920 c-865 -29 -1341 -135 -1925 -430 -641 -325 -947 -627
-1100 -1087 -49 -149 -64 -255 -57 -397 17 -322 192 -601 507 -807 174 -114
239 -149 741 -397 605 -300 795 -414 937 -566 75 -81 104 -141 110 -230 6 -89
-10 -161 -58 -262 -82 -170 -278 -306 -540 -373 -225 -57 -332 -66 -780 -66
-602 1 -1120 43 -1706 140 -116 19 -215 35 -221 35 -10 0 -279 -738 -272 -744
7 -6 413 -75 589 -101 778 -110 1613 -147 2385 -104 711 39 1149 149 1685 419
542 275 847 539 1018 885 105 211 148 394 139 590 -15 332 -184 604 -508 818
-169 110 -243 150 -704 377 -591 290 -780 401 -934 545 -106 100 -151 185
-151 284 0 80 20 163 61 250 44 96 167 213 284 273 147 74 274 111 500 145
101 15 185 18 530 18 607 -1 1109 -42 1718 -141 121 -20 221 -34 223 -32 5 6
264 728 264 737 0 8 -331 68 -555 101 -667 98 -1481 143 -2180 120z"/>
<path d="M21675 9919 c-384 -14 -899 -59 -1265 -110 -136 -19 -513 -81 -590
-97 l-35 -8 -139 -387 c-76 -213 -137 -390 -134 -392 2 -2 73 9 158 25 521 97
1206 168 1806 186 l221 7 136 381 c76 210 137 387 137 394 0 8 -15 11 -42 10
-24 0 -137 -5 -253 -9z"/>
<path d="M22620 9890 l0 -40 60 0 60 0 0 -165 0 -165 55 0 55 0 0 165 0 165
66 0 65 0 -3 38 -3 37 -177 3 -178 2 0 -40z"/>
<path d="M23050 9725 l0 -205 50 0 50 0 1 133 0 132 37 -87 c36 -88 36 -88 72
-88 36 0 37 1 71 83 l34 82 3 -127 3 -128 49 0 50 0 0 205 0 205 -58 0 -59 0
-43 -100 c-24 -55 -46 -97 -49 -94 -3 3 -24 47 -46 97 l-40 92 -63 3 -62 3 0
-206z"/>
<path d="M21205 8593 c-540 -25 -939 -62 -1364 -124 -221 -32 -521 -85 -529
-94 -6 -6 -1370 -3807 -1378 -3842 l-6 -23 1054 0 1053 0 729 2033 c401 1117
731 2038 733 2045 5 12 -110 14 -292 5z"/>
</g>
</svg>
