<?xml version="1.0" standalone="no"?>
<!DOCTYPE svg PUBLIC "-//W3C//DTD SVG 20010904//EN"
 "http://www.w3.org/TR/2001/REC-SVG-20010904/DTD/svg10.dtd">
<svg version="1.0" xmlns="http://www.w3.org/2000/svg"
 width="225.000000pt" height="225.000000pt" viewBox="0 0 225.000000 225.000000"
 preserveAspectRatio="xMidYMid meet">
<metadata>
Created by potrace 1.16, written by Peter Selinger 2001-2019
</metadata>
<g transform="translate(0.000000,225.000000) scale(0.100000,-0.100000)"
fill="#000000" stroke="none">
<path d="M0 1125 l0 -1125 1125 0 1125 0 0 1125 0 1125 -1125 0 -1125 0 0
-1125z m1783 493 c10 -31 -6 -33 -269 -30 -279 4 -308 0 -332 -39 -17 -26 -10
-34 16 -20 13 7 100 11 232 11 134 0 219 4 232 11 24 13 52 -8 43 -32 -4 -12
-44 -13 -245 -11 l-239 4 -26 -26 c-35 -35 -31 -48 10 -30 26 10 81 14 223 14
l189 0 26 -37 c14 -21 36 -60 49 -88 22 -48 23 -61 26 -353 l3 -303 -34 -34
-35 -35 -261 0 -262 0 3 465 3 465 33 32 32 33 273 5 c149 3 280 7 289 8 9 1
18 -4 21 -10z m-734 -13 c56 -29 61 -56 61 -351 l0 -268 -38 37 -37 36 -23
-39 c-47 -83 -149 -119 -237 -86 -147 57 -193 292 -82 414 17 18 18 25 8 35
-27 27 -91 -94 -99 -189 -12 -160 100 -303 240 -304 26 0 59 5 74 10 26 10 32
6 111 -72 l83 -83 0 -62 0 -63 -261 0 -261 0 -34 34 -34 34 0 280 c0 313 8
365 71 452 l31 43 -78 78 -79 79 278 0 c224 0 283 -3 306 -15z"/>
<path d="M1195 1406 c-24 -24 -25 -31 -25 -137 0 -102 1 -111 18 -104 9 4 46
12 82 16 67 9 87 2 77 -25 -5 -13 -17 -15 -66 -10 -55 6 -61 5 -85 -19 -26
-26 -26 -29 -26 -168 0 -119 3 -146 17 -161 15 -17 15 -19 0 -36 -11 -12 -17
-36 -17 -65 l0 -47 225 0 c145 0 233 4 249 11 44 21 48 47 44 340 -4 295 -10
328 -62 394 l-24 30 -191 3 -191 3 -25 -25z"/>
<path d="M765 1300 c-13 -22 -17 -117 -5 -158 6 -24 26 -60 45 -80 30 -33 39
-37 84 -37 44 0 55 4 83 32 l33 33 -26 26 c-23 22 -30 24 -49 14 -32 -17 -60
11 -60 60 0 31 -7 44 -45 79 -49 45 -51 46 -60 31z"/>
</g>
</svg>
