<?xml version="1.0" standalone="no"?>
<!DOCTYPE svg PUBLIC "-//W3C//DTD SVG 20010904//EN"
 "http://www.w3.org/TR/2001/REC-SVG-20010904/DTD/svg10.dtd">
<svg version="1.0" xmlns="http://www.w3.org/2000/svg"
 width="1200.000000pt" height="630.000000pt" viewBox="0 0 1200.000000 630.000000"
 preserveAspectRatio="xMidYMid meet">
<metadata>
Created by potrace 1.16, written by Peter Selinger 2001-2019
</metadata>
<g transform="translate(0.000000,630.000000) scale(0.100000,-0.100000)"
fill="#000000" stroke="none">
<path d="M3265 2069 c-3 -8 -4 -239 -3 -514 l3 -500 143 -3 142 -3 0 392 0
391 153 -4 c172 -3 214 -16 254 -77 41 -62 46 -95 50 -403 l5 -298 139 0 139
0 0 323 c0 353 -8 418 -56 508 -49 89 -128 145 -246 175 -90 22 -715 34 -723
13z"/>
<path d="M4340 2063 c0 -4 59 -190 131 -413 72 -223 145 -449 162 -502 l31
-98 206 0 207 0 16 43 c8 23 45 132 80 242 36 110 104 318 151 463 47 144 86
265 86 268 0 2 -66 3 -147 2 l-148 -3 -112 -375 c-61 -206 -114 -384 -118
-395 -9 -25 -14 -9 -140 433 l-98 342 -154 0 c-84 0 -153 -3 -153 -7z"/>
<path d="M5534 2057 c-2 -8 -3 -236 -2 -508 l3 -494 143 -3 142 -3 0 511 0
510 -140 0 c-107 0 -142 -3 -146 -13z"/>
<path d="M6000 1560 l0 -510 263 0 c378 0 470 14 571 88 98 72 145 186 153
377 11 247 -68 425 -221 500 -95 47 -166 55 -478 55 l-288 0 0 -510z m524 276
c78 -24 121 -58 152 -123 26 -52 29 -68 28 -153 0 -75 -4 -105 -21 -140 -50
-108 -135 -150 -305 -150 l-88 0 0 290 0 290 93 0 c53 0 115 -6 141 -14z"/>
<path d="M7123 1928 c4 -79 7 -308 7 -510 l0 -368 139 0 c135 0 139 1 144 22
4 12 7 242 7 510 l0 488 -151 0 -152 0 6 -142z"/>
<path d="M7737 1572 c-108 -274 -197 -504 -197 -510 0 -9 39 -12 139 -12 l139
0 29 88 30 87 240 3 241 2 29 -87 30 -88 157 -3 156 -3 -13 33 c-8 18 -99 248
-203 510 l-189 478 -196 0 -195 0 -197 -498z m476 68 l84 -225 -170 -3 c-93
-1 -172 0 -175 2 -4 5 45 141 139 386 18 46 34 80 36 75 2 -6 41 -111 86 -235z"/>
<path d="M8815 1175 c-67 -66 2 -174 92 -144 40 13 53 34 53 88 0 31 -6 44
-26 60 -37 29 -89 27 -119 -4z m101 -3 c15 -10 34 -47 34 -67 0 -25 -46 -65
-75 -65 -55 0 -87 79 -48 122 16 18 68 24 89 10z"/>
</g>
</svg>
