<?xml version="1.0" standalone="no"?>
<!DOCTYPE svg PUBLIC "-//W3C//DTD SVG 20010904//EN"
 "http://www.w3.org/TR/2001/REC-SVG-20010904/DTD/svg10.dtd">
<svg version="1.0" xmlns="http://www.w3.org/2000/svg"
 width="2197.000000pt" height="2049.000000pt" viewBox="0 0 2197.000000 2049.000000"
 preserveAspectRatio="xMidYMid meet">
<metadata>
Created by potrace 1.16, written by Peter Selinger 2001-2019
</metadata>
<g transform="translate(0.000000,2049.000000) scale(0.100000,-0.100000)"
fill="#000000" stroke="none">
<path d="M0 12630 l0 -7860 10985 0 10985 0 0 7860 0 7860 -10985 0 -10985 0
0 -7860z m3029 823 l181 -167 0 -338 0 -337 -164 -153 c-97 -90 -161 -157
-157 -163 5 -5 109 -138 231 -295 123 -157 236 -302 252 -322 l30 -38 -254 0
-253 0 -251 323 -250 322 -327 3 -327 2 0 -325 0 -325 -215 0 -215 0 0 990 0
990 769 0 769 0 181 -167z m3646 -814 c259 -540 472 -986 473 -990 2 -5 -104
-9 -235 -9 l-238 0 -120 260 -120 259 -455 1 -455 1 86 82 c47 45 129 123 183
172 l99 90 182 5 183 5 -162 347 c-88 191 -163 348 -166 348 -3 0 -172 -353
-375 -785 l-370 -785 -238 0 c-139 0 -237 4 -235 9 2 5 214 451 473 990 l469
981 276 0 275 0 470 -981z m3653 784 l212 -196 0 -597 0 -597 -212 -196 -213
-196 -792 -1 -793 0 0 990 0 990 793 0 792 0 213 -197z m3470 188 c-1 -5 -82
-81 -178 -170 l-174 -161 -483 0 -483 0 0 -235 0 -235 503 -2 502 -3 3 -172 2
-173 -505 0 -505 0 0 -240 0 -240 580 0 580 0 0 -170 0 -170 -795 0 -795 0 0
990 0 990 876 0 c496 0 874 -4 872 -9z m3151 -156 l178 -165 7 -76 c3 -43 6
-337 6 -655 l0 -577 -184 -171 -184 -171 -634 0 -633 1 -182 170 -183 171 0
648 0 649 183 170 182 170 633 1 634 0 177 -165z m2693 -507 l583 -672 3 672
2 672 215 0 215 0 0 -990 0 -990 -207 1 -208 0 -580 671 -580 671 -3 -672 -2
-671 -215 0 -215 0 0 990 0 990 204 0 205 0 583 -672z"/>
<path d="M1740 12955 l0 -325 455 0 455 0 85 78 84 77 1 167 0 166 -86 81 -87
81 -453 0 -454 0 0 -325z"/>
<path d="M8960 12630 l0 -650 478 0 477 1 98 90 97 91 0 468 0 468 -99 91 -99
91 -476 0 -476 0 0 -650z"/>
<path d="M15628 13209 l-98 -91 0 -488 0 -488 98 -91 97 -90 414 -1 413 0 99
91 99 91 0 488 0 488 -97 91 -98 90 -415 1 -415 0 -97 -91z"/>
<path d="M0 2125 l0 -2125 10985 0 10985 0 0 2125 0 2125 -10985 0 -10985 0 0
-2125z m4347 1034 c234 -26 436 -130 579 -298 35 -41 64 -77 64 -81 0 -10
-188 -170 -200 -170 -5 0 -10 4 -10 9 0 17 -125 144 -179 180 -118 80 -223
111 -372 111 -202 0 -333 -53 -469 -190 -97 -97 -140 -165 -181 -282 -36 -106
-49 -188 -49 -315 0 -390 216 -681 564 -758 64 -14 106 -17 210 -12 149 7 218
22 328 74 124 58 119 46 116 274 l-3 194 -212 3 -213 2 0 120 0 120 350 0 350
0 0 -394 0 -394 -67 -52 c-117 -88 -267 -152 -442 -187 -132 -27 -417 -24
-533 5 -296 74 -511 244 -638 506 -83 172 -117 345 -107 556 25 535 389 934
897 983 74 8 124 7 217 -4z m11820 0 c225 -25 415 -118 565 -277 101 -108 101
-97 -2 -186 -50 -42 -96 -79 -103 -82 -8 -3 -35 23 -66 61 -132 163 -327 245
-550 232 -258 -14 -460 -153 -571 -392 -63 -134 -75 -196 -75 -390 0 -198 10
-246 82 -395 39 -80 59 -108 132 -181 147 -145 280 -195 501 -186 208 9 316
57 470 211 l75 75 97 -81 c111 -94 111 -85 19 -181 -115 -121 -292 -225 -457
-268 -111 -29 -292 -35 -416 -15 -413 68 -713 371 -794 804 -20 110 -21 314 0
424 85 451 418 777 847 827 107 12 138 12 246 0z m2043 1 c176 -28 327 -106
429 -221 l40 -46 -95 -88 -95 -88 -47 45 c-63 61 -117 93 -204 122 -143 47
-286 43 -396 -13 -104 -53 -151 -129 -152 -240 0 -80 25 -137 83 -187 64 -54
146 -88 333 -138 275 -73 383 -125 484 -233 110 -117 158 -259 147 -433 -15
-247 -176 -432 -452 -520 -89 -28 -290 -38 -403 -20 -185 30 -371 123 -505
253 l-79 78 68 62 c38 34 84 76 103 93 l34 31 72 -71 c130 -128 259 -186 430
-194 287 -13 458 122 443 352 -12 183 -124 263 -497 356 -203 51 -327 114
-418 214 -92 100 -133 209 -133 351 0 147 47 262 146 361 87 87 237 157 379
177 61 8 222 7 285 -3z m-11734 -51 c43 -6 112 -23 154 -39 247 -90 380 -279
380 -540 0 -208 -83 -377 -235 -479 -40 -26 -84 -51 -99 -55 -14 -3 -26 -10
-26 -14 1 -4 104 -194 229 -422 l228 -415 -151 -3 c-82 -1 -155 -1 -161 2 -7
2 -106 184 -221 405 l-209 401 -197 0 -198 0 0 -405 0 -405 -140 0 -140 0 0
990 0 990 354 0 c199 0 389 -5 432 -11z m2474 -966 c210 -538 385 -984 387
-990 4 -10 -31 -13 -154 -13 l-160 0 -100 273 -101 272 -409 3 -408 2 -101
-272 -100 -273 -152 -3 -151 -3 35 88 c19 49 193 494 387 990 l352 903 146 0
146 0 383 -977z m1727 966 c276 -37 464 -196 517 -436 33 -150 12 -338 -51
-456 -44 -82 -146 -178 -233 -220 -131 -64 -166 -70 -460 -76 l-265 -6 -3
-387 -2 -388 -140 0 -140 0 0 990 0 990 349 0 c193 0 385 -5 428 -11z m1483
-404 l0 -415 545 0 545 0 0 415 0 415 140 0 140 0 0 -990 0 -990 -140 0 -140
0 0 445 0 445 -545 0 -545 0 0 -445 0 -445 -140 0 -140 0 0 990 0 990 140 0
140 0 0 -415z m2320 -575 l0 -990 -145 0 -145 0 0 990 0 990 145 0 145 0 0
-990z"/>
<path d="M5970 2531 l0 -341 228 0 c238 0 287 7 368 48 50 25 100 81 128 141
31 67 30 236 -1 303 -30 65 -102 132 -171 160 -53 21 -74 23 -304 26 l-248 3
0 -340z"/>
<path d="M8399 2764 c-6 -16 -75 -202 -154 -414 -79 -212 -146 -393 -150 -402
-7 -17 12 -18 314 -18 177 0 321 2 321 5 0 8 -311 849 -315 854 -3 2 -9 -9
-16 -25z"/>
<path d="M10188 2874 c-5 -4 -8 -166 -8 -361 l0 -353 210 0 c117 0 232 5 262
11 111 24 198 90 239 183 33 76 37 195 10 286 -19 62 -31 82 -80 131 -87 87
-137 100 -411 106 -118 3 -218 2 -222 -3z"/>
</g>
</svg>
