<?xml version="1.0" standalone="no"?>
<!DOCTYPE svg PUBLIC "-//W3C//DTD SVG 20010904//EN"
 "http://www.w3.org/TR/2001/REC-SVG-20010904/DTD/svg10.dtd">
<svg version="1.0" xmlns="http://www.w3.org/2000/svg"
 width="866.000000pt" height="650.000000pt" viewBox="0 0 866.000000 650.000000"
 preserveAspectRatio="xMidYMid meet">
<metadata>
Created by potrace 1.16, written by Peter Selinger 2001-2019
</metadata>
<g transform="translate(0.000000,650.000000) scale(0.100000,-0.100000)"
fill="#000000" stroke="none">
<path d="M3969 5934 c-6 -7 -8 -17 -5 -23 3 -5 -4 -7 -16 -4 -18 4 -20 3 -8
-6 12 -8 11 -10 -7 -8 -12 0 -21 4 -21 7 2 25 -3 32 -16 21 -8 -6 -29 -12 -47
-13 -51 -1 -119 -19 -113 -30 3 -5 -5 -6 -19 -3 -16 4 -36 -1 -58 -14 -19 -12
-42 -21 -52 -21 -10 0 -16 -4 -13 -9 4 -5 -2 -7 -13 -4 -10 3 -22 0 -25 -6 -4
-6 -33 -11 -65 -11 -44 0 -67 -6 -92 -23 -19 -12 -70 -31 -114 -40 -91 -21
-181 -61 -195 -88 -7 -12 -24 -19 -53 -21 -36 -3 -44 -7 -57 -34 -10 -21 -31
-39 -60 -53 -84 -40 -115 -59 -144 -90 -17 -17 -38 -31 -48 -31 -10 0 -30 -13
-45 -30 -14 -16 -33 -30 -42 -30 -9 0 -30 -16 -46 -36 -17 -20 -47 -45 -69
-56 -46 -23 -145 -106 -216 -180 -225 -234 -277 -292 -295 -330 -5 -12 -18
-31 -28 -43 -35 -38 -254 -361 -279 -410 -9 -16 -28 -75 -43 -130 -15 -55 -33
-122 -41 -149 -8 -27 -14 -67 -14 -87 0 -21 -4 -40 -9 -44 -9 -5 -41 -97 -48
-140 -14 -76 -14 -157 0 -184 13 -26 13 -32 0 -51 -13 -18 -15 -58 -15 -224
l2 -201 44 -125 c59 -168 93 -330 77 -368 -10 -23 -8 -36 8 -72 10 -25 22 -72
25 -106 10 -91 68 -240 133 -336 24 -37 42 -72 39 -77 -3 -5 2 -26 11 -47 9
-22 16 -45 14 -52 -3 -17 41 -84 83 -127 17 -17 50 -53 74 -78 23 -26 46 -47
50 -47 5 0 21 -18 38 -40 16 -22 36 -40 45 -40 9 0 23 -15 30 -32 13 -31 253
-287 382 -408 33 -30 91 -86 129 -124 39 -37 105 -98 147 -134 42 -37 84 -77
94 -89 10 -13 33 -31 50 -40 33 -17 238 -72 270 -73 11 0 30 -9 44 -20 14 -11
41 -22 62 -26 36 -6 95 -39 139 -78 21 -19 40 -21 165 -25 123 -3 142 -1 153
14 11 15 13 15 24 -4 13 -26 32 -26 171 -5 114 16 224 47 279 76 19 10 40 18
47 18 7 0 22 9 33 20 21 21 50 27 50 9 0 -5 4 -7 10 -4 6 3 10 16 10 28 0 17
15 30 59 55 39 21 67 45 81 69 12 21 30 43 40 50 26 19 70 98 70 127 0 14 9
49 20 78 27 70 25 83 -10 108 -27 19 -31 27 -29 65 3 52 -13 75 -52 75 -20 0
-33 8 -45 29 -11 19 -28 31 -48 35 -87 15 -102 20 -116 35 -8 10 -44 23 -80
30 -60 12 -78 14 -112 10 -7 0 -49 0 -92 1 -75 2 -81 1 -101 -24 -23 -29 -45
-34 -45 -11 0 10 -10 15 -33 15 -36 0 -80 25 -74 43 2 6 19 16 38 23 l34 12
-46 1 c-40 1 -47 -2 -57 -24 -15 -33 -39 -32 -60 4 -24 42 -82 68 -82 36 0
-17 -30 -35 -58 -35 -11 0 -39 16 -62 35 -23 19 -50 35 -59 35 -64 0 -295 204
-453 400 -54 68 -85 97 -108 104 -29 8 -112 106 -143 169 l-21 42 -6 -35 c-3
-20 -11 -36 -21 -38 -17 -3 -162 151 -178 189 -5 13 -12 36 -15 52 -4 15 -12
27 -19 27 -12 0 -37 44 -37 67 0 7 11 13 25 13 l25 0 0 289 0 289 33 44 c115
151 577 794 577 802 0 4 -80 5 -177 4 l-177 -3 -197 -273 c-108 -150 -200
-274 -203 -275 -3 -1 -23 22 -45 52 -42 56 -53 101 -26 101 19 0 23 19 34 155
14 168 84 340 175 423 24 22 56 58 72 79 45 60 134 156 168 180 17 12 63 52
102 90 64 62 222 177 356 261 29 18 60 41 68 51 19 24 81 55 140 71 24 7 78
29 120 50 41 20 89 40 105 44 66 15 173 68 186 93 23 42 64 57 177 61 60 3
108 0 113 -5 7 -7 -10 -20 -46 -39 -52 -26 -58 -27 -66 -11 -10 17 -45 22 -86
11 -32 -9 -18 -24 22 -24 25 0 37 -6 45 -21 7 -11 14 -18 17 -15 4 3 12 1 20
-5 10 -9 13 -8 13 1 0 7 8 10 20 7 12 -3 61 8 111 25 98 33 135 32 104 -2 -18
-20 -18 -20 27 0 39 17 67 19 219 20 202 0 263 -4 302 -19 17 -7 27 -7 27 -1
0 16 17 12 24 -6 4 -10 2 -13 -7 -8 -8 4 -9 4 -2 -3 13 -12 104 -35 115 -28 9
6 24 -24 21 -42 -1 -7 3 -13 9 -13 6 0 8 5 4 11 -4 7 -1 10 7 7 8 -3 14 -11
14 -19 0 -8 8 -13 19 -11 12 2 16 -1 10 -9 -4 -8 -3 -10 4 -5 13 7 72 -23 72
-36 0 -4 15 -7 33 -7 30 2 30 2 5 6 -16 2 -28 9 -28 14 0 5 -6 9 -14 9 -8 0
-18 5 -22 11 -4 8 0 9 15 4 12 -4 21 -2 21 4 0 6 -7 11 -15 11 -8 0 -30 9 -48
19 -19 11 -45 21 -57 23 -13 1 -25 10 -28 18 -4 12 -2 13 9 3 18 -18 28 -16
26 5 0 12 -9 17 -29 16 -15 0 -31 -3 -34 -7 -3 -3 -16 -1 -28 4 -18 8 -21 17
-18 52 3 37 0 44 -22 57 -19 9 -26 21 -26 42 0 23 -4 28 -23 28 -13 0 -29 6
-36 13 -11 10 -14 10 -18 0 -3 -7 -11 -13 -19 -13 -10 0 -14 12 -14 38 0 36
-3 41 -49 65 -54 30 -83 57 -60 57 11 0 11 2 0 13 -11 10 -14 10 -18 0 -3 -7
-11 -13 -19 -13 -10 0 -14 12 -14 38 0 35 -4 40 -56 70 -31 18 -69 32 -85 32
-16 0 -29 5 -29 10 0 6 14 10 30 10 38 0 39 14 1 30 -36 14 -71 50 -51 50 12
0 12 2 1 13 -11 10 -14 10 -18 0 -3 -7 -11 -13 -18 -13 -10 0 -15 16 -17 52
-3 50 -5 54 -43 74 -24 12 -40 27 -40 38 0 10 -10 25 -22 33 -22 15 -23 14
-23 -11 0 -16 -5 -26 -15 -26 -11 0 -15 11 -15 40 0 29 4 40 15 40 8 0 15 5
15 10 0 6 -13 10 -30 10 -16 0 -30 -4 -30 -10 0 -5 -4 -10 -10 -10 -5 0 -10 7
-10 15 0 8 3 15 8 15 4 0 7 11 7 24 0 13 -3 22 -7 19 -5 -2 -8 -11 -8 -19 0
-18 -23 -14 -31 5 -3 8 -12 15 -20 17 -8 1 -23 6 -34 10 -18 7 -19 6 -5 -11
14 -17 14 -18 -18 -1 -39 20 -146 20 -163 0z"/>
<path d="M6117 4043 c5 -37 3 -43 -13 -43 -11 -1 -122 0 -248 0 -127 0 -292
-2 -368 -6 l-138 -7 0 -138 0 -139 409 0 c267 0 412 -4 416 -10 4 -6 11 -7 17
-4 7 5 9 -2 4 -20 -5 -20 -3 -26 5 -21 7 5 9 1 5 -11 -3 -11 -1 -37 5 -59 5
-22 12 -56 14 -75 3 -19 8 -47 11 -62 l6 -28 -445 0 c-347 0 -446 -3 -448 -12
-2 -7 -3 -201 -1 -430 l2 -418 415 0 c325 0 415 -3 415 -12 0 -25 -80 -249
-111 -310 -46 -93 -117 -207 -158 -257 -20 -25 -47 -61 -61 -81 -77 -113 -343
-370 -384 -370 -7 0 -21 -8 -30 -19 -16 -18 -16 -19 9 -25 31 -8 32 -21 3 -37
-18 -10 -20 -9 -15 4 5 15 2 14 -31 0 -20 -10 -47 -26 -60 -37 -13 -11 -51
-36 -85 -56 -49 -29 -62 -41 -62 -61 0 -14 -6 -24 -15 -25 -23 0 -50 -15 -50
-26 0 -6 12 -8 28 -5 21 5 19 2 -11 -11 -20 -9 -36 -21 -34 -27 2 -5 -7 -20
-20 -32 -13 -12 -23 -17 -23 -11 0 7 -7 5 -17 -4 -10 -8 -26 -18 -36 -21 -26
-10 -32 -35 -12 -57 21 -24 53 -26 61 -5 4 10 17 14 38 12 20 -1 30 2 29 10
-3 15 66 52 84 46 6 -2 29 5 51 16 30 15 39 25 36 39 -4 13 5 22 32 35 20 10
39 16 41 13 9 -9 -9 -27 -35 -37 -21 -8 -23 -12 -12 -19 9 -6 16 -6 18 0 2 6
10 10 17 10 8 0 17 9 20 21 5 15 10 18 18 10 6 -6 19 -11 29 -11 24 0 23 -17
-1 -30 -14 -7 -22 -7 -27 2 -5 7 -10 4 -16 -11 -5 -15 -14 -21 -23 -17 -15 5
-22 -24 -9 -37 9 -9 61 20 67 38 4 8 16 15 27 15 11 0 20 4 20 9 0 5 8 11 19
14 14 3 19 -1 19 -19 0 -13 -4 -24 -9 -24 -5 0 -9 -4 -9 -8 0 -5 14 -7 30 -4
17 2 30 8 30 13 0 5 11 9 25 9 46 0 25 -15 -78 -54 -56 -22 -107 -45 -113 -52
-6 -8 -13 -12 -16 -9 -6 6 -109 -34 -163 -63 -22 -12 -48 -22 -58 -22 -25 0
-59 -19 -52 -30 8 -13 -12 -22 -88 -36 -39 -8 -75 -19 -81 -25 -8 -9 -3 -10
19 -5 l30 7 -25 -21 c-19 -14 -21 -20 -9 -20 9 0 29 10 45 22 21 17 42 23 81
24 28 0 58 6 65 12 22 17 57 4 51 -19 -5 -17 -14 -20 -57 -18 -28 1 -82 -6
-121 -16 -77 -19 -205 -79 -205 -96 0 -5 5 -7 10 -4 6 3 10 -1 10 -9 0 -22 8
-20 46 9 18 14 37 25 43 25 6 0 11 5 11 10 0 6 7 10 16 10 12 0 15 -6 11 -21
-5 -20 -3 -21 34 -16 60 8 188 50 193 63 3 7 -3 10 -15 7 -36 -10 -19 14 21
30 36 14 42 14 55 1 8 -9 19 -13 25 -9 5 3 26 8 47 11 20 2 44 11 53 19 9 8
23 15 31 15 8 0 52 19 99 42 47 23 105 49 130 57 25 9 111 61 192 115 118 79
152 98 174 93 22 -4 38 6 93 57 101 94 192 170 233 195 20 12 54 44 74 72 20
27 48 56 63 64 15 7 36 31 47 52 10 21 35 57 54 79 19 23 43 54 53 68 10 15
27 26 41 26 16 0 28 11 43 43 80 162 116 218 135 214 5 -1 19 27 30 63 11 36
26 74 34 85 8 11 14 45 14 82 0 34 5 65 10 68 6 3 10 15 10 26 0 25 46 117 72
146 16 18 18 25 8 43 -8 15 -9 38 -4 69 5 25 8 52 7 58 0 7 3 10 8 7 5 -3 9 0
9 5 0 6 6 11 13 11 7 0 13 8 14 18 0 9 4 44 8 77 4 33 7 65 7 70 -9 87 -16
107 -42 120 -14 7 -32 21 -39 29 -11 13 -11 16 3 16 20 0 20 7 2 26 -8 8 -21
12 -28 9 -25 -10 -68 33 -68 66 0 27 -2 29 -15 15 -8 -8 -15 -19 -15 -25 0
-17 -17 -13 -24 5 -3 9 -9 37 -12 62 -3 26 -9 49 -13 52 -12 8 -20 40 -22 90
-2 66 -6 75 -36 77 -16 0 -64 4 -109 8 -80 6 -80 7 -76 33 3 21 -2 29 -20 37
-13 6 -23 19 -23 30 0 13 -14 27 -40 41 -22 11 -40 27 -41 35 -2 29 -4 31 -20
19 -8 -8 -14 -9 -13 -4 5 29 -1 34 -71 54 -14 4 79 8 205 9 129 1 237 6 245
11 13 9 13 10 0 10 -9 0 -11 3 -5 8 6 4 11 27 13 52 2 33 -1 41 -8 30 -7 -11
-10 12 -10 75 0 58 4 95 12 103 9 9 3 12 -28 12 -21 0 -171 1 -333 3 l-294 2
-13 40 -12 40 5 -42z m165 -970 c6 -66 -7 -202 -20 -215 -4 -4 -148 -7 -318
-6 l-309 3 -3 138 -3 137 324 0 325 0 4 -57z"/>
<path d="M10 3856 l0 -146 556 0 c364 0 562 -4 575 -10 17 -10 19 -22 19 -130
0 -65 -3 -125 -6 -134 -6 -14 -66 -16 -575 -16 l-569 0 0 -430 0 -430 145 0
145 0 0 285 0 285 264 0 264 0 164 -285 163 -284 168 -1 168 0 -32 58 c-18 31
-91 156 -161 276 -70 121 -128 223 -128 227 0 3 21 12 48 18 95 24 165 81 204
166 21 47 23 63 23 255 0 191 -2 209 -23 262 -27 68 -89 127 -160 154 -43 17
-99 19 -649 22 l-603 3 0 -145z"/>
<path d="M3553 3993 l-43 -4 0 -140 0 -139 490 0 c292 0 490 -4 490 -9 0 -5
-172 -157 -382 -338 -209 -180 -430 -370 -490 -421 l-108 -94 0 -144 0 -144
720 0 721 0 -3 143 -3 142 -495 5 -495 5 27 20 c27 21 371 316 726 624 112 97
207 178 211 181 24 15 31 59 31 178 l0 130 -32 5 c-39 6 -1303 6 -1365 0z"/>
<path d="M7227 3993 c-2 -4 -6 -327 -8 -718 l-4 -710 143 -3 142 -3 0 492 c0
270 4 489 8 487 11 -4 110 -116 437 -498 153 -179 310 -360 348 -402 l69 -78
144 0 144 0 -2 718 -3 717 -140 0 -140 0 -5 -494 -5 -494 -91 104 c-134 154
-444 514 -565 658 -59 69 -127 149 -152 176 l-44 50 -136 3 c-74 2 -137 0
-140 -5z"/>
<path d="M5296 1145 c-6 -16 -9 -17 -16 -5 -6 8 -10 10 -10 5 0 -18 -60 -76
-71 -70 -6 4 -8 18 -5 31 7 28 1 29 -34 8 l-25 -15 24 5 23 5 -23 -25 c-12
-13 -30 -24 -40 -24 -9 0 -19 -8 -23 -17 -3 -10 -8 -23 -12 -30 -3 -7 8 -14
27 -18 24 -6 38 -2 62 16 17 12 51 30 76 39 38 13 47 21 49 44 2 15 10 30 18
33 8 3 14 9 14 15 0 5 -4 7 -9 4 -5 -4 -11 -1 -13 6 -3 7 -7 4 -12 -7z"/>
</g>
</svg>
