<?xml version="1.0" standalone="no"?>
<!DOCTYPE svg PUBLIC "-//W3C//DTD SVG 20010904//EN"
 "http://www.w3.org/TR/2001/REC-SVG-20010904/DTD/svg10.dtd">
<svg version="1.0" xmlns="http://www.w3.org/2000/svg"
 width="736.000000pt" height="278.000000pt" viewBox="0 0 736.000000 278.000000"
 preserveAspectRatio="xMidYMid meet">
<metadata>
Created by potrace 1.16, written by Peter Selinger 2001-2019
</metadata>
<g transform="translate(0.000000,278.000000) scale(0.100000,-0.100000)"
fill="#000000" stroke="none">
<path d="M5025 2434 c-366 -18 -630 -41 -940 -79 -872 -108 -1830 -338 -2504
-601 l-124 -48 65 -16 c36 -9 77 -24 93 -34 36 -24 67 -95 63 -149 l-3 -42
-90 0 -90 0 -6 43 c-7 54 -18 64 -65 60 -30 -2 -42 -9 -54 -30 -25 -45 0 -74
125 -146 172 -99 197 -130 197 -247 -1 -115 -34 -165 -135 -201 -49 -18 -177
-20 -234 -5 -96 26 -153 100 -153 198 0 63 5 65 120 61 l75 -3 3 -52 c2 -41 8
-56 25 -68 51 -35 117 -4 117 56 0 40 -33 70 -145 133 -113 64 -169 117 -185
176 -11 41 -9 96 6 135 9 21 -221 -94 -381 -191 -242 -146 -426 -314 -500
-455 -33 -63 -39 -85 -43 -152 -4 -71 -2 -82 27 -141 228 -463 1663 -598 3413
-321 758 120 1497 314 2123 558 122 47 153 63 130 65 -16 1 -59 9 -94 18 -74
20 -124 63 -140 121 -14 49 -14 427 0 476 25 93 111 142 244 141 174 -1 248
-58 257 -194 l3 -55 -92 -3 -93 -3 0 38 c0 56 -23 83 -70 83 -76 0 -83 -26
-78 -273 3 -193 6 -201 63 -213 22 -4 38 0 58 16 25 20 27 27 27 91 l0 69 -35
0 -35 0 0 55 0 55 130 0 130 0 0 -108 c0 -59 -6 -131 -14 -160 -7 -29 -11 -52
-8 -52 12 0 236 118 334 176 197 117 393 280 467 387 62 91 84 148 89 230 4
71 2 82 -27 142 -113 228 -522 380 -1188 440 -159 15 -707 27 -858 19z m-1095
-767 c63 -31 90 -75 90 -148 l0 -59 -90 0 -90 0 0 37 c0 20 -7 45 -17 55 -23
26 -78 24 -97 -4 -35 -50 -8 -89 102 -149 175 -96 212 -140 212 -250 -1 -155
-95 -227 -284 -217 -157 9 -233 79 -235 216 l-1 53 98 -3 97 -3 5 -55 c4 -46
9 -57 32 -69 35 -20 78 -5 97 33 24 51 0 79 -134 161 -133 81 -176 124 -185
188 -12 86 13 156 73 201 65 48 240 55 327 13z m-1660 4 c0 -5 29 -166 65
-359 36 -192 65 -353 65 -356 0 -10 -188 -7 -194 3 -3 5 -22 118 -41 252 -41
281 -56 371 -61 367 -1 -2 -23 -140 -48 -307 -26 -167 -49 -307 -52 -312 -7
-12 -194 -12 -194 1 0 5 29 165 65 356 36 191 65 351 65 355 0 5 74 9 165 9
91 0 165 -4 165 -9z m597 -71 c7 -41 26 -158 43 -259 17 -101 32 -186 34 -188
3 -4 13 50 57 321 16 104 32 193 35 198 3 4 70 8 148 8 l144 0 6 -127 c3 -71
7 -234 8 -363 l3 -235 -90 0 -90 0 -5 310 c-3 171 -6 306 -8 300 -7 -30 -112
-599 -112 -606 0 -5 -42 -9 -94 -9 l-94 0 -6 28 c-8 40 -94 510 -103 562 -5
28 -10 -73 -13 -270 l-5 -315 -93 -3 -93 -3 6 283 c3 156 8 320 11 366 l6 83
146 -3 147 -3 12 -75z m1523 -203 c0 -322 1 -327 70 -327 69 0 70 5 70 327 l0
283 96 0 96 0 -4 -302 c-3 -333 -4 -338 -67 -391 -45 -38 -97 -52 -191 -52
-95 0 -146 14 -192 53 -59 49 -62 69 -66 380 -2 155 -1 289 2 297 4 12 26 15
96 15 l90 0 0 -283z m848 98 c30 -99 67 -220 83 -270 l29 -90 -5 273 -5 273
90 -3 90 -3 1 -355 0 -355 -128 -3 -129 -3 -84 276 c-46 152 -86 278 -89 280
-3 2 -5 -122 -3 -276 l3 -279 -91 0 -90 0 0 353 c0 195 3 357 7 361 4 3 66 5
137 4 l131 -3 53 -180z"/>
</g>
</svg>
