<?xml version="1.0" standalone="no"?>
<!DOCTYPE svg PUBLIC "-//W3C//DTD SVG 20010904//EN"
 "http://www.w3.org/TR/2001/REC-SVG-20010904/DTD/svg10.dtd">
<svg version="1.0" xmlns="http://www.w3.org/2000/svg"
 width="767.000000pt" height="431.000000pt" viewBox="0 0 767.000000 431.000000"
 preserveAspectRatio="xMidYMid meet">
<metadata>
Created by potrace 1.16, written by Peter Selinger 2001-2019
</metadata>
<g transform="translate(0.000000,431.000000) scale(0.100000,-0.100000)"
fill="#000000" stroke="none">
<path d="M0 2155 l0 -2155 3830 0 3830 0 0 2155 0 2155 -3830 0 -3830 0 0
-2155z m3800 239 l0 -84 -607 -1 c-335 -1 -619 -5 -633 -9 l-25 -8 25 -2 c14
-1 30 -3 35 -5 6 -1 34 -3 63 -3 37 -2 52 -6 52 -16 0 -8 -61 -113 -136 -235
l-135 -221 -116 0 c-94 0 -114 3 -110 14 8 19 275 439 294 461 5 6 12 18 16
28 10 26 89 140 106 154 11 9 72 12 204 13 l187 0 0 -45 c0 -47 12 -58 30 -26
5 11 27 30 47 43 37 23 44 23 363 28 179 3 328 4 333 2 4 -2 7 -41 7 -88z
m220 0 l0 -84 -32 -1 c-52 -2 -121 -9 -125 -13 -2 -2 32 -7 77 -10 l80 -7 0
-119 c0 -136 8 -155 75 -170 50 -12 205 -12 264 -1 65 13 71 27 71 159 l0 115
88 -7 c48 -4 98 -7 112 -7 14 0 171 -8 350 -19 350 -21 409 -31 452 -77 72
-78 60 -234 -24 -295 -63 -46 -85 -48 -446 -48 l-342 0 0 55 c0 30 -2 55 -5
55 -3 0 -22 -17 -43 -39 -58 -60 -111 -71 -347 -71 -150 0 -210 4 -251 16 -59
17 -102 47 -123 88 -18 33 -23 33 -39 -4 -16 -35 -62 -71 -113 -88 -25 -9
-156 -12 -457 -12 l-422 0 0 224 c0 124 3 227 8 229 4 2 61 1 127 -4 66 -5
188 -13 270 -19 83 -5 219 -15 302 -20 176 -11 212 -22 265 -83 l38 -42 0 92
c0 51 5 95 10 98 7 4 7 12 0 25 -5 10 -10 53 -10 94 l0 75 88 3 c48 2 90 2 95
0 4 -2 7 -41 7 -88z m600 33 l0 -51 33 36 c63 68 56 67 449 68 l353 1 3 -85 3
-86 -516 0 -515 0 0 83 c0 46 2 86 4 88 2 2 45 3 95 1 l91 -3 0 -52z"/>
<path d="M3010 2095 l0 -105 315 0 c273 0 316 2 321 15 15 39 -21 47 -316 75
-179 17 -225 28 -265 65 -19 17 -35 37 -35 43 0 7 -4 12 -10 12 -6 0 -10 -42
-10 -105z"/>
<path d="M4620 2095 l0 -105 304 0 c167 0 311 3 320 6 24 9 19 43 -6 53 -13 5
-68 11 -123 15 -142 9 -324 25 -362 32 -38 6 -91 47 -104 81 -19 50 -29 22
-29 -82z"/>
</g>
</svg>
