<?xml version="1.0" standalone="no"?>
<!DOCTYPE svg PUBLIC "-//W3C//DTD SVG 20010904//EN"
 "http://www.w3.org/TR/2001/REC-SVG-20010904/DTD/svg10.dtd">
<svg version="1.0" xmlns="http://www.w3.org/2000/svg"
 width="250.000000pt" height="188.000000pt" viewBox="0 0 250.000000 188.000000"
 preserveAspectRatio="xMidYMid meet">
<metadata>
Created by potrace 1.16, written by Peter Selinger 2001-2019
</metadata>
<g transform="translate(0.000000,188.000000) scale(0.100000,-0.100000)"
fill="#000000" stroke="none">
<path d="M0 940 l0 -940 1250 0 1250 0 0 940 0 940 -1250 0 -1250 0 0 -940z
m735 231 c22 -10 49 -28 59 -40 18 -20 18 -23 4 -38 -15 -14 -19 -13 -53 13
-26 20 -51 29 -90 32 -67 5 -91 0 -140 -33 -34 -24 -39 -25 -53 -11 -14 14
-14 17 2 35 54 60 188 80 271 42z m251 -116 c33 -63 61 -115 64 -115 3 0 33
54 68 120 48 90 68 120 83 120 11 0 19 -7 19 -16 0 -9 -34 -81 -76 -160 -53
-101 -80 -144 -93 -144 -12 0 -40 43 -94 144 -78 146 -87 171 -64 179 20 7 32
-9 93 -128z m582 120 c42 -18 82 -52 82 -71 0 -25 -32 -23 -66 3 -25 19 -51
28 -89 31 -67 5 -91 0 -140 -33 -34 -24 -39 -25 -53 -11 -14 14 -14 17 2 35
52 57 182 80 264 46z m415 -129 c42 -80 77 -152 77 -161 0 -11 -7 -15 -22 -13
-18 2 -36 29 -83 120 -33 65 -63 118 -66 118 -3 0 -34 -54 -68 -120 -46 -88
-67 -120 -81 -120 -29 0 -30 21 0 75 15 28 51 94 79 148 35 64 58 97 69 97 12
0 42 -47 95 -144z m-335 -57 c3 -52 1 -58 -28 -82 -76 -64 -223 -63 -300 2
-33 28 -34 30 -18 47 16 16 19 16 35 2 81 -71 252 -60 261 16 l3 26 -75 0
c-75 0 -93 8 -82 36 5 12 24 14 103 12 l98 -3 3 -56z m-1153 -29 c4 -6 25 -20
47 -31 60 -31 152 -24 203 15 34 27 38 27 53 12 16 -16 15 -19 -15 -46 -74
-67 -223 -68 -303 -1 -30 25 -33 31 -21 45 15 18 27 20 36 6z"/>
</g>
</svg>
