<?xml version="1.0" standalone="no"?>
<!DOCTYPE svg PUBLIC "-//W3C//DTD SVG 20010904//EN"
 "http://www.w3.org/TR/2001/REC-SVG-20010904/DTD/svg10.dtd">
<svg version="1.0" xmlns="http://www.w3.org/2000/svg"
 width="1920.000000pt" height="1080.000000pt" viewBox="0 0 1920.000000 1080.000000"
 preserveAspectRatio="xMidYMid meet">
<metadata>
Created by potrace 1.16, written by Peter Selinger 2001-2019
</metadata>
<g transform="translate(0.000000,1080.000000) scale(0.100000,-0.100000)"
fill="#000000" stroke="none">
<path d="M0 5400 l0 -5400 9600 0 9600 0 0 5400 0 5400 -9600 0 -9600 0 0
-5400z m6201 1333 c131 -75 238 -138 236 -139 -1 -1 -157 -90 -347 -199 -190
-109 -401 -231 -470 -271 l-125 -72 -3 -276 c-1 -152 -4 -276 -6 -276 -2 0
-64 35 -137 78 -74 43 -180 104 -236 136 l-103 58 0 277 1 276 271 155 c149
85 361 208 472 272 111 64 203 117 205 117 2 1 111 -61 242 -136z m1819 -703
l0 -130 -317 -2 -318 -3 -3 -242 -2 -243 290 0 290 0 0 -135 0 -135 -290 0
-290 0 0 -305 0 -305 -140 0 -140 0 0 815 0 815 460 0 460 0 0 -130z m5580
-685 l0 -815 -135 0 -135 0 0 815 0 815 135 0 135 0 0 -815z m-2000 490 l0
-165 135 0 135 0 0 -130 0 -130 -135 0 -135 0 0 -440 0 -440 -135 0 -135 0 0
735 0 735 135 0 135 0 0 -165z m-2197 -150 c81 -21 152 -59 208 -112 l49 -46
0 72 0 71 135 0 135 0 0 -570 0 -570 -135 0 -135 0 0 81 0 82 -22 -28 c-37
-48 -135 -112 -205 -136 -52 -18 -90 -23 -163 -23 -379 0 -634 368 -533 769
49 196 215 365 406 411 72 17 192 17 260 -1z m1431 -5 c43 -11 101 -32 129
-47 58 -31 196 -161 220 -208 l15 -30 -110 -64 c-85 -48 -113 -60 -119 -49
-22 38 -57 77 -94 106 -158 121 -396 61 -490 -125 -27 -53 -30 -67 -30 -158 0
-93 2 -105 33 -167 18 -36 49 -81 69 -99 88 -77 218 -106 328 -74 50 14 70 28
127 86 l67 68 106 -60 c58 -33 105 -64 105 -67 0 -17 -95 -125 -142 -162 -112
-89 -216 -124 -368 -124 -173 0 -313 56 -430 174 -113 113 -170 252 -170 417
0 110 14 172 62 273 49 102 148 206 245 258 133 70 300 90 447 52z m1769 5
c81 -21 152 -59 208 -112 l49 -46 0 72 0 71 135 0 135 0 0 -570 0 -570 -135 0
-135 0 0 78 0 78 -55 -53 c-191 -180 -508 -171 -708 21 -242 234 -245 647 -7
887 71 71 161 122 253 145 72 17 192 17 260 -1z m-3933 -145 l0 -130 -135 0
-135 0 0 -440 0 -440 -135 0 -135 0 0 570 0 570 270 0 270 0 0 -130z m-2468
-177 c222 -128 237 -138 216 -150 -13 -6 -225 -129 -473 -271 l-450 -260 -5
-276 -5 -276 -237 137 -238 136 0 276 0 276 103 58 c56 31 269 154 472 271
204 118 372 215 374 215 2 1 112 -61 243 -136z"/>
<path d="M9275 5449 c-101 -13 -204 -90 -252 -188 -25 -50 -28 -67 -28 -161 0
-101 1 -108 34 -168 38 -70 89 -119 160 -154 38 -19 62 -23 141 -23 85 0 101
3 148 28 70 37 123 91 158 163 26 53 29 69 29 154 0 88 -3 101 -33 162 -67
137 -203 208 -357 187z"/>
<path d="M12475 5449 c-101 -13 -204 -90 -252 -188 -25 -50 -28 -67 -28 -161
0 -101 1 -108 34 -168 38 -70 89 -119 160 -154 38 -19 62 -23 141 -23 85 0
101 3 148 28 69 36 129 98 161 167 22 47 26 68 26 150 0 88 -3 101 -33 162
-67 137 -203 208 -357 187z"/>
</g>
</svg>
