<?xml version="1.0" standalone="no"?>
<!DOCTYPE svg PUBLIC "-//W3C//DTD SVG 20010904//EN"
 "http://www.w3.org/TR/2001/REC-SVG-20010904/DTD/svg10.dtd">
<svg version="1.0" xmlns="http://www.w3.org/2000/svg"
 width="600.000000pt" height="600.000000pt" viewBox="0 0 600.000000 600.000000"
 preserveAspectRatio="xMidYMid meet">
<metadata>
Created by potrace 1.16, written by Peter Selinger 2001-2019
</metadata>
<g transform="translate(0.000000,600.000000) scale(0.100000,-0.100000)"
fill="#000000" stroke="none">
<path d="M0 3000 l0 -3000 3000 0 3000 0 0 3000 0 3000 -3000 0 -3000 0 0
-3000z m1181 1337 c105 -71 105 -193 0 -264 -94 -64 -231 14 -231 130 0 118
137 197 231 134z m435 -89 c-62 -62 -136 -147 -163 -188 -49 -73 -133 -221
-133 -233 0 -3 46 25 103 63 290 196 695 305 1008 271 280 -30 511 -138 716
-334 118 -113 135 -142 41 -72 -296 223 -728 305 -1122 214 -50 -12 -96 -24
-103 -28 -6 -3 61 -7 150 -7 380 -3 684 -106 940 -321 128 -107 262 -293 326
-454 32 -81 63 -179 56 -179 -3 0 -20 31 -39 69 -107 212 -353 441 -601 561
-347 167 -766 179 -1195 33 -103 -35 -306 -139 -352 -181 l-38 -34 0 -145 c0
-79 5 -177 11 -216 52 -350 227 -704 465 -943 191 -191 432 -315 719 -370 95
-18 348 -25 460 -12 l60 7 -60 -28 c-112 -53 -184 -66 -365 -66 -121 0 -187 5
-247 18 -307 66 -552 192 -759 390 -130 124 -211 235 -294 402 -96 193 -129
320 -167 633 l-8 62 -38 -91 c-129 -306 -140 -663 -32 -997 19 -58 33 -107 31
-109 -2 -2 -22 24 -45 57 -123 175 -179 408 -167 690 3 80 8 159 11 175 10 51
-10 8 -49 -103 -38 -111 -74 -282 -78 -374 -2 -32 -6 -58 -9 -58 -7 0 -26 87
-34 160 -13 116 31 345 95 500 46 111 124 247 193 338 171 221 173 225 206
322 91 265 289 501 546 649 39 22 71 40 72 40 1 1 -49 -50 -111 -111z m-990
-462 c124 -58 178 -211 116 -333 -66 -128 -216 -176 -340 -108 -89 48 -139
142 -129 240 18 173 196 274 353 201z m2014 -1066 c25 -25 26 -62 2 -83 -15
-14 -51 -17 -238 -19 l-219 -3 -3 -127 -3 -128 180 0 181 0 0 35 0 35 -102 0
c-80 0 -105 3 -120 17 -24 21 -23 58 2 83 18 18 33 20 180 20 l160 0 0 -139
c0 -114 -3 -143 -16 -155 -13 -14 -53 -16 -284 -16 l-270 0 -15 24 c-14 21
-16 56 -13 236 3 196 4 213 22 226 16 11 71 14 278 14 245 0 259 -1 278 -20z
m842 3 c22 -20 24 -66 2 -87 -13 -14 -49 -16 -235 -16 l-219 0 0 -35 0 -35
219 0 c186 0 222 -2 235 -16 13 -12 16 -40 16 -143 0 -85 -4 -131 -12 -139 -9
-9 -85 -12 -279 -12 -294 0 -299 1 -299 60 0 55 21 60 257 60 l213 0 0 35 0
35 -223 0 c-160 0 -226 3 -235 12 -8 8 -12 54 -12 139 0 103 3 131 16 143 13
14 52 16 276 16 229 0 264 -2 280 -17z m220 0 c14 -12 18 -31 18 -80 0 -34 3
-63 7 -63 3 0 98 37 210 82 177 71 206 80 228 70 30 -14 42 -55 24 -83 -8 -12
-63 -41 -129 -68 -63 -26 -141 -61 -174 -77 l-59 -31 159 -57 c186 -67 204
-77 204 -113 0 -31 -26 -63 -50 -63 -9 0 -106 31 -216 70 -109 38 -200 70
-201 70 -2 0 -3 -27 -3 -60 0 -50 -3 -61 -20 -70 -33 -18 -73 -8 -87 20 -17
33 -18 402 -2 433 22 41 59 49 91 20z m690 0 c16 -15 18 -36 18 -239 0 -211
-1 -224 -19 -234 -32 -17 -69 -12 -85 12 -13 19 -16 58 -16 230 0 195 1 209
20 228 24 24 57 26 82 3z m210 0 c16 -14 18 -34 18 -190 l0 -173 217 0 c187 0
219 -2 235 -17 20 -18 23 -54 8 -84 -10 -18 -24 -19 -280 -19 -267 0 -269 0
-284 22 -13 19 -16 57 -16 221 0 193 5 230 34 249 19 13 49 9 68 -9z m648 -3
c18 -18 20 -33 20 -190 l0 -170 215 0 c202 0 216 -1 235 -20 24 -24 26 -57 3
-82 -15 -17 -37 -18 -284 -18 -255 0 -269 1 -279 19 -6 12 -10 106 -10 235 0
211 0 215 22 230 30 21 54 20 78 -4z"/>
</g>
</svg>
