<?xml version="1.0" standalone="no"?>
<!DOCTYPE svg PUBLIC "-//W3C//DTD SVG 20010904//EN"
 "http://www.w3.org/TR/2001/REC-SVG-20010904/DTD/svg10.dtd">
<svg version="1.0" xmlns="http://www.w3.org/2000/svg"
 width="1205.000000pt" height="980.000000pt" viewBox="0 0 1205.000000 980.000000"
 preserveAspectRatio="xMidYMid meet">
<metadata>
Created by potrace 1.16, written by Peter Selinger 2001-2019
</metadata>
<g transform="translate(0.000000,980.000000) scale(0.100000,-0.100000)"
fill="#000000" stroke="none">
<path d="M7 9795 c-4 -5 -7 -2210 -7 -4902 l0 -4893 6018 0 6019 0 6 1952 c4
1073 7 3276 7 4895 l0 2943 -5562 0 c-3060 0 -5768 3 -6018 6 -250 4 -458 3
-463 -1z m10233 -4870 l0 -1765 -320 0 -320 0 0 1765 0 1765 320 0 320 0 0
-1765z m-7810 1375 l0 -340 -335 0 -335 0 0 340 0 340 335 0 335 0 0 -340z
m3722 -265 l-2 -465 230 0 230 0 0 -275 0 -275 -227 -2 -228 -3 -3 -425 c-1
-234 2 -477 7 -541 13 -168 49 -241 139 -280 44 -19 178 -39 265 -39 l47 0 0
-301 0 -301 -147 6 c-280 13 -422 40 -560 107 -200 96 -314 269 -365 553 -22
120 -22 137 -26 1413 l-3 1293 313 2 c172 2 318 2 323 0 7 -1 9 -163 7 -467z
m-1741 -441 c291 -55 492 -202 636 -464 36 -65 67 -153 96 -270 20 -82 21
-113 24 -892 l4 -808 -320 0 -319 0 -4 713 c-4 703 -5 713 -27 792 -62 219
-187 342 -386 380 -206 40 -389 -11 -524 -146 -100 -101 -151 -226 -171 -424
-6 -56 -10 -349 -10 -675 0 -316 0 -590 0 -607 l0 -33 -315 0 -315 0 0 1205 0
1205 315 0 315 0 0 -167 0 -168 38 45 c151 183 356 298 587 329 90 13 269 5
376 -15z m3859 0 c315 -49 610 -235 785 -495 162 -241 225 -473 225 -824 l0
-135 -941 0 -941 0 6 -32 c3 -18 22 -67 43 -108 52 -108 153 -207 264 -260
287 -136 672 -73 908 150 24 22 49 39 55 37 14 -6 404 -302 431 -328 19 -19
19 -20 -45 -85 -184 -187 -425 -318 -690 -375 -143 -31 -459 -34 -590 -6 -507
109 -865 461 -971 958 -32 148 -32 402 -1 539 73 315 257 591 508 760 288 195
592 260 954 204z m-5858 -1220 c2 -658 0 -1200 -3 -1205 -3 -5 -136 -8 -320
-7 l-314 3 -3 1190 c-1 655 0 1196 3 1203 3 9 77 12 320 12 l315 0 2 -1196z"/>
<path d="M7915 5060 c-208 -31 -373 -137 -468 -300 -27 -47 -58 -149 -50 -163
3 -5 287 -7 630 -6 521 3 626 6 631 17 8 22 -27 122 -63 177 -131 205 -406
316 -680 275z"/>
</g>
</svg>
