<?xml version="1.0" standalone="no"?>
<!DOCTYPE svg PUBLIC "-//W3C//DTD SVG 20010904//EN"
 "http://www.w3.org/TR/2001/REC-SVG-20010904/DTD/svg10.dtd">
<svg version="1.0" xmlns="http://www.w3.org/2000/svg"
 width="7500.000000pt" height="3750.000000pt" viewBox="0 0 7500.000000 3750.000000"
 preserveAspectRatio="xMidYMid meet">
<metadata>
Created by potrace 1.16, written by Peter Selinger 2001-2019
</metadata>
<g transform="translate(0.000000,3750.000000) scale(0.100000,-0.100000)"
fill="#000000" stroke="none">
<path d="M0 18750 l0 -18750 37500 0 37500 0 0 18750 0 18750 -37500 0 -37500
0 0 -18750z m10814 8397 c18 -31 785 -1406 1266 -2267 130 -234 346 -621 480
-860 335 -600 660 -1183 1035 -1855 175 -313 371 -664 435 -780 193 -345 420
-752 1214 -2175 416 -745 760 -1358 764 -1362 4 -4 7 2093 7 4660 l0 4667
1860 3 c1023 1 1870 0 1883 -3 l22 -5 0 -8160 0 -8160 -1982 0 -1983 0 -109
198 c-60 108 -164 296 -231 417 -67 121 -284 513 -482 870 -198 358 -694 1253
-1103 1990 -408 737 -845 1525 -970 1750 -125 226 -434 784 -687 1240 -253
457 -645 1163 -870 1570 -226 407 -731 1318 -1123 2025 -391 707 -716 1289
-721 1295 -5 5 -9 -2202 -9 -5673 l0 -5682 -1880 0 -1880 0 0 8158 c0 4487 3
8162 7 8165 3 4 1138 7 2522 7 l2516 0 19 -33z m23726 -1529 l-1 -1563 -123
-165 c-100 -134 -807 -1083 -2085 -2800 -133 -179 -1947 -2616 -2352 -3160
-1998 -2683 -2949 -3961 -2949 -3963 0 -1 1789 -1 3975 1 l3975 2 0 -1560 0
-1560 -6490 0 -6490 0 0 1528 0 1527 1131 1525 c622 839 1200 1617 1283 1730
84 113 353 475 597 805 245 330 906 1221 1469 1980 563 759 1079 1454 1146
1545 67 91 523 705 1012 1365 l890 1200 -3569 3 -3569 2 0 1553 c0 855 3 1557
7 1560 3 4 2737 7 6075 7 l6068 0 0 -1562z m5722 1550 c9 -7 189 -303 401
-658 211 -355 732 -1225 1157 -1935 424 -709 910 -1521 1078 -1802 169 -282
309 -513 312 -513 3 1 120 188 260 418 140 229 280 457 311 507 63 101 2181
3550 2334 3800 54 88 105 168 113 178 14 16 136 17 2289 17 1250 0 2273 -2
2273 -4 0 -4 -80 -129 -305 -476 -23 -36 -235 -364 -472 -730 -236 -366 -463
-717 -504 -780 -41 -63 -196 -303 -346 -535 -149 -231 -305 -472 -346 -535
-41 -63 -229 -353 -417 -645 -188 -291 -418 -647 -511 -790 -93 -143 -292
-451 -443 -685 -151 -234 -309 -479 -352 -545 -134 -206 -166 -256 -808 -1249
l-626 -969 54 -86 c68 -110 157 -251 623 -986 322 -509 518 -818 1003 -1585
209 -331 772 -1221 990 -1565 139 -220 295 -465 345 -545 50 -80 188 -298 307
-485 118 -187 302 -477 408 -645 106 -168 261 -413 345 -545 560 -883 1225
-1936 1225 -1940 0 -3 -1072 -5 -2383 -5 l-2382 0 -117 193 c-63 105 -227 377
-363 602 -137 226 -312 516 -390 645 -183 303 -1376 2280 -1733 2870 -151 250
-334 553 -406 672 -72 119 -134 214 -137 210 -3 -4 -271 -437 -594 -962 -826
-1341 -1246 -2022 -1974 -3202 l-634 -1028 -2275 0 -2274 0 20 33 c10 17 448
696 972 1507 524 811 993 1536 1040 1610 152 236 339 525 1500 2323 624 966
1205 1866 1292 2000 362 560 469 728 474 740 2 7 -136 235 -307 507 -377 598
-605 961 -714 1135 -227 362 -1405 2232 -1455 2310 -31 50 -337 536 -680 1080
-342 545 -660 1049 -705 1120 -554 873 -1224 1948 -1220 1956 4 5 918 9 2369
9 1879 0 2365 -2 2378 -12z m24358 -1548 l0 -1560 -2415 0 -2415 0 0 -6605 0
-6605 -2060 0 -2060 0 0 6605 0 6605 -2415 0 -2415 0 0 1560 0 1560 6890 0
6890 0 0 -1560z m3220 1350 l0 -140 -385 0 -385 0 0 -1029 0 -1030 -151 -3
c-83 -2 -153 -1 -155 1 -2 2 -4 467 -4 1033 l0 1028 -382 0 -383 0 3 140 3
140 920 0 919 0 0 -140z m916 -285 c78 -231 226 -679 330 -996 104 -317 192
-575 196 -573 3 2 10 19 13 37 8 33 636 1866 661 1925 l13 32 200 0 201 0 0
-1170 0 -1170 -145 0 -145 0 -2 970 -3 970 -334 -962 c-183 -530 -337 -967
-341 -971 -12 -14 -272 -10 -280 4 -4 6 -156 451 -336 988 l-329 976 -3 -987
-2 -988 -148 0 -147 0 3 1170 2 1170 228 -2 227 -3 141 -420z m1314 -13680 l0
-2155 -1945 0 -1945 0 0 2155 0 2155 1945 0 1945 0 0 -2155z"/>
</g>
</svg>
