<?xml version="1.0" standalone="no"?>
<!DOCTYPE svg PUBLIC "-//W3C//DTD SVG 20010904//EN"
 "http://www.w3.org/TR/2001/REC-SVG-20010904/DTD/svg10.dtd">
<svg version="1.0" xmlns="http://www.w3.org/2000/svg"
 width="259.000000pt" height="194.000000pt" viewBox="0 0 259.000000 194.000000"
 preserveAspectRatio="xMidYMid meet">
<metadata>
Created by potrace 1.16, written by Peter Selinger 2001-2019
</metadata>
<g transform="translate(0.000000,194.000000) scale(0.100000,-0.100000)"
fill="#000000" stroke="none">
<path d="M434 1456 l-34 -34 0 -446 c0 -324 3 -452 12 -471 26 -57 -4 -55 889
-55 l821 0 34 34 34 34 0 452 0 452 -34 34 -34 34 -827 0 -827 0 -34 -34z
m405 -253 c-4 -27 -8 -54 -8 -60 -1 -9 -24 -13 -81 -13 -89 0 -88 -2 -74 83
l7 37 82 0 82 0 -8 -47z m271 10 c0 -21 3 -48 6 -60 6 -23 5 -23 -95 -23 -55
0 -101 2 -101 5 0 2 12 29 27 60 l27 55 68 0 68 0 0 -37z m304 15 c-4 -13 -12
-39 -19 -58 l-12 -35 -83 -3 c-74 -3 -82 -1 -76 14 3 9 11 36 17 60 l11 44 85
0 c83 0 84 0 77 -22z m451 3 c112 -52 145 -160 85 -285 -55 -117 -180 -212
-309 -236 -62 -12 -361 -14 -361 -2 0 4 28 89 62 190 l62 183 101 -7 c55 -4
101 -8 103 -9 2 -2 -13 -49 -32 -105 -20 -56 -36 -104 -36 -107 0 -12 114 9
151 27 44 23 94 86 104 131 4 17 1 43 -5 60 -21 51 -52 59 -219 59 l-150 0 21
60 20 60 181 0 c156 0 188 -3 222 -19z m-1090 -128 l47 -6 -6 -51 c-4 -28 -9
-67 -12 -86 -4 -28 4 -18 43 53 l48 89 110 -6 c61 -4 112 -11 116 -17 4 -6 10
-48 14 -93 l8 -81 30 94 30 93 73 -4 c40 -2 75 -6 78 -8 4 -5 -61 -206 -110
-337 l-16 -43 -99 0 c-78 0 -99 3 -99 14 0 26 -30 299 -33 303 -2 1 -38 -69
-80 -157 l-76 -160 -111 0 -112 0 6 43 c3 23 13 110 21 192 9 83 18 156 20
163 5 13 38 15 110 5z"/>
</g>
</svg>
